<svg width="34" height="36" viewBox="0 0 34 36" fill="none" xmlns="http://www.w3.org/2000/svg">
    <path d="M5 12C5 5.37258 10.3726 0 17 0V0C23.6274 0 29 5.37258 29 12V12C29 18.6274 23.6274 24 17 24V24C10.3726 24 5 18.6274 5 12V12Z" fill="#0C0A09"/>
    <g filter="url(#filter0_d_13_1973)">
        <circle cx="17" cy="12" r="10" fill="#BF4E0C"/>
        <path d="M25.8125 12C25.8125 16.9188 21.825 20.9062 16.9062 20.9062C11.9875 20.9062 8 16.9188 8 12C8 7.08121 11.9875 3.09375 16.9062 3.09375C21.825 3.09375 25.8125 7.08121 25.8125 12Z" fill="#5A2100"/>
        <path fill-rule="evenodd" clip-rule="evenodd" d="M25.7937 12.5831L25.17 12.5427C25.1816 12.3634 25.1875 12.1824 25.1875 12C25.1875 11.8176 25.1816 11.6366 25.17 11.4573L25.7937 11.4169C25.8062 11.6097 25.8125 11.8041 25.8125 12C25.8125 12.1959 25.8062 12.3903 25.7937 12.5831ZM25.643 10.2618C25.5669 9.87712 25.466 9.5013 25.342 9.13613L24.7502 9.33699C24.8654 9.67632 24.9591 10.0256 25.0299 10.3831L25.643 10.2618ZM24.8958 8.06001L24.3355 8.33686C24.1748 8.01175 23.9935 7.69864 23.793 7.39925L24.3124 7.05155C24.5279 7.37349 24.723 7.71026 24.8958 8.06001ZM23.6024 6.12766L23.1327 6.53993C22.8942 6.26814 22.6381 6.01209 22.3663 5.77355L22.7786 5.30381C23.0708 5.56024 23.346 5.83549 23.6024 6.12766ZM21.8547 4.59387L21.507 5.11323C21.2076 4.91279 20.8945 4.7314 20.5694 4.57077L20.8462 4.01044C21.196 4.18324 21.5328 4.37834 21.8547 4.59387ZM19.7701 3.5642L19.5693 4.15605C19.2299 4.04088 18.8807 3.94713 18.5231 3.87639L18.6444 3.26327C19.0291 3.33938 19.4049 3.44027 19.7701 3.5642ZM17.4893 3.11253L17.449 3.73623C17.2697 3.72464 17.0887 3.71875 16.9062 3.71875C16.7238 3.71875 16.5428 3.72464 16.3635 3.73623L16.3232 3.11253C16.5159 3.10007 16.7104 3.09375 16.9062 3.09375C17.1021 3.09375 17.2966 3.10007 17.4893 3.11253ZM15.1681 3.26327C14.7834 3.33938 14.4076 3.44027 14.0424 3.5642L14.2432 4.15605C14.5826 4.04088 14.9318 3.94713 15.2894 3.87639L15.1681 3.26327ZM12.9663 4.01043L13.2431 4.57077C12.918 4.7314 12.6049 4.91279 12.3055 5.11323L11.9578 4.59387C12.2797 4.37834 12.6165 4.18324 12.9663 4.01043ZM11.0339 5.30381L11.4462 5.77355C11.1744 6.01209 10.9183 6.26814 10.6798 6.53993L10.2101 6.12766C10.4665 5.83549 10.7417 5.56024 11.0339 5.30381ZM9.50012 7.05155L10.0195 7.39925C9.81904 7.69863 9.63765 8.01175 9.47702 8.33686L8.91669 8.06001C9.08949 7.71026 9.28459 7.37348 9.50012 7.05155ZM8.47045 9.13613L9.0623 9.33699C8.94713 9.67632 8.85338 10.0256 8.78264 10.3831L8.16952 10.2618C8.24563 9.87712 8.34652 9.5013 8.47045 9.13613ZM8.01878 11.4169C8.00632 11.6097 8 11.8041 8 12C8 12.1959 8.00632 12.3903 8.01878 12.5831L8.64248 12.5427C8.63089 12.3634 8.625 12.1824 8.625 12C8.625 11.8176 8.63089 11.6366 8.64248 11.4573L8.01878 11.4169ZM8.16952 13.7382L8.78264 13.6169C8.85338 13.9744 8.94713 14.3237 9.0623 14.663L8.47045 14.8639C8.34652 14.4987 8.24563 14.1229 8.16952 13.7382ZM8.91668 15.94L9.47702 15.6631C9.63765 15.9882 9.81904 16.3014 10.0195 16.6008L9.50012 16.9485C9.28459 16.6265 9.08949 16.2897 8.91668 15.94ZM10.2101 17.8723L10.6798 17.4601C10.9183 17.7319 11.1744 17.9879 11.4462 18.2265L11.0339 18.6962C10.7417 18.4398 10.4665 18.1645 10.2101 17.8723ZM11.9578 19.4061L12.3055 18.8868C12.6049 19.0872 12.918 19.2686 13.2431 19.4292L12.9663 19.9896C12.6165 19.8168 12.2797 19.6217 11.9578 19.4061ZM14.0424 20.4358L14.2432 19.844C14.5826 19.9591 14.9318 20.0529 15.2894 20.1236L15.1681 20.7367C14.7834 20.6606 14.4076 20.5597 14.0424 20.4358ZM16.3232 20.8875L16.3635 20.2638C16.5428 20.2754 16.7238 20.2812 16.9062 20.2812C17.0887 20.2812 17.2697 20.2754 17.449 20.2638L17.4893 20.8875C17.2966 20.8999 17.1021 20.9062 16.9062 20.9062C16.7104 20.9062 16.5159 20.8999 16.3232 20.8875ZM18.6444 20.7367L18.5231 20.1236C18.8807 20.0529 19.2299 19.9591 19.5693 19.844L19.7701 20.4358C19.4049 20.5597 19.0291 20.6606 18.6444 20.7367ZM20.8462 19.9896L20.5694 19.4292C20.8945 19.2686 21.2076 19.0872 21.507 18.8868L21.8547 19.4061C21.5328 19.6217 21.196 19.8168 20.8462 19.9896ZM22.7786 18.6962L22.3663 18.2265C22.6381 17.9879 22.8942 17.7319 23.1327 17.4601L23.6024 17.8723C23.346 18.1645 23.0708 18.4398 22.7786 18.6962ZM24.3124 16.9485L23.793 16.6008C23.9935 16.3014 24.1748 15.9882 24.3355 15.6631L24.8958 15.94C24.723 16.2897 24.5279 16.6265 24.3124 16.9485ZM25.342 14.8639L24.7502 14.663C24.8654 14.3237 24.9591 13.9744 25.0299 13.6169L25.643 13.7382C25.5669 14.1229 25.466 14.4987 25.342 14.8639Z" fill="#FCAA7A"/>
        <path d="M13.9681 18.1887C13.8387 18.4129 13.552 18.4897 13.3278 18.3602C13.1036 18.2308 13.0268 17.9441 13.1563 17.7199C13.2857 17.4957 13.5724 17.4189 13.7966 17.5483C14.0208 17.6778 14.0976 17.9645 13.9681 18.1887Z" fill="#C6AB9B"/>
        <path d="M11.4515 8.79706C11.3221 9.02126 11.0354 9.09808 10.8112 8.96864C10.587 8.8392 10.5102 8.55251 10.6396 8.32831C10.7691 8.10411 11.0558 8.0273 11.28 8.15674C11.5042 8.28618 11.581 8.57286 11.4515 8.79706Z" fill="#C6AB9B"/>
        <path d="M23.3598 15.6721C23.2303 15.8963 22.9436 15.9731 22.7194 15.8436C22.4952 15.7142 22.4184 15.4275 22.5479 15.2033C22.6773 14.9791 22.964 14.9023 23.1882 15.0317C23.4124 15.1612 23.4892 15.4479 23.3598 15.6721Z" fill="#C6AB9B"/>
        <path d="M20.8431 6.28046C20.7137 6.50466 20.427 6.58148 20.2028 6.45204C19.9786 6.32259 19.9018 6.03591 20.0313 5.81171C20.1607 5.58751 20.4474 5.51069 20.6716 5.64014C20.8958 5.76958 20.9726 6.05626 20.8431 6.28046Z" fill="#C6AB9B"/>
        <path d="M13.9092 11.9092C13.9092 10.2523 15.2523 8.90918 16.9092 8.90918C18.566 8.90918 19.9092 10.2523 19.9092 11.9092C19.9092 13.566 18.566 14.9092 16.9092 14.9092C15.2523 14.9092 13.9092 13.566 13.9092 11.9092Z" fill="#C6AB9B"/>
        <path fill-rule="evenodd" clip-rule="evenodd" d="M13.2842 11.9092C13.2842 9.90715 14.9071 8.28418 16.9092 8.28418C18.9112 8.28418 20.5342 9.90715 20.5342 11.9092C20.5342 13.9112 18.9112 15.5342 16.9092 15.5342C14.9071 15.5342 13.2842 13.9112 13.2842 11.9092ZM16.9092 8.90918C15.2523 8.90918 13.9092 10.2523 13.9092 11.9092C13.9092 13.566 15.2523 14.9092 16.9092 14.9092C18.566 14.9092 19.9092 13.566 19.9092 11.9092C19.9092 10.2523 18.566 8.90918 16.9092 8.90918Z" fill="#281104"/>
        <path d="M17.9092 10.9092C17.9092 11.4615 17.4615 11.9092 16.9092 11.9092C16.3569 11.9092 15.9092 11.4615 15.9092 10.9092L15.9092 6.90918C15.9092 6.35689 16.3569 5.90918 16.9092 5.90918C17.4615 5.90918 17.9092 6.35689 17.9092 6.90918L17.9092 10.9092Z" fill="#C6AB9B"/>
        <path d="M16.9092 11.9092C16.3569 11.9092 15.9092 11.4615 15.9092 10.9092L15.9092 6.90918C15.9092 6.35689 16.3569 5.90918 16.9092 5.90918L16.9092 11.9092Z" fill="#281104"/>
    </g>
    <defs>
        <filter id="filter0_d_13_1973" x="0.333335" y="2" width="33.3333" height="33.3333" filterUnits="userSpaceOnUse" color-interpolation-filters="sRGB">
            <feFlood flood-opacity="0" result="BackgroundImageFix"/>
            <feColorMatrix in="SourceAlpha" type="matrix" values="0 0 0 0 0 0 0 0 0 0 0 0 0 0 0 0 0 0 127 0" result="hardAlpha"/>
            <feOffset dy="6.66666"/>
            <feGaussianBlur stdDeviation="3.33333"/>
            <feComposite in2="hardAlpha" operator="out"/>
            <feColorMatrix type="matrix" values="0 0 0 0 0 0 0 0 0 0 0 0 0 0 0 0 0 0 0.25 0"/>
            <feBlend mode="normal" in2="BackgroundImageFix" result="effect1_dropShadow_13_1973"/>
            <feBlend mode="normal" in="SourceGraphic" in2="effect1_dropShadow_13_1973" result="shape"/>
        </filter>
    </defs>
</svg>
