<svg width="34" height="36" viewBox="0 0 34 36" fill="none" xmlns="http://www.w3.org/2000/svg">
    <path d="M5 12C5 5.37258 10.3726 0 17 0V0C23.6274 0 29 5.37258 29 12V12C29 18.6274 23.6274 24 17 24V24C10.3726 24 5 18.6274 5 12V12Z" fill="#0C0A09"/>
    <g filter="url(#filter0_d_13_3025)">
        <circle cx="17" cy="12" r="10" fill="#36BF0C"/>
        <circle cx="16.9062" cy="12" r="8.59375" fill="#0D5A00" stroke="#92FC7A" stroke-width="0.625" stroke-dasharray="1.25 1.25"/>
        <circle cx="14.3428" cy="18.3411" r="0.46875" transform="rotate(22.747 14.3428 18.3411)" fill="#ACC69B"/>
        <circle cx="10.6592" cy="9.34401" r="0.46875" transform="rotate(22.747 10.6592 9.34401)" fill="#ACC69B"/>
        <circle cx="23.3389" cy="14.6594" r="0.46875" transform="rotate(22.747 23.3389 14.6594)" fill="#ACC69B"/>
        <circle cx="19.6583" cy="5.65944" r="0.46875" transform="rotate(22.747 19.6583 5.65944)" fill="#ACC69B"/>
        <circle cx="16.8711" cy="11.9995" r="3.3125" transform="rotate(-135 16.8711 11.9995)" fill="#ACC69B" stroke="#042804" stroke-width="0.625"/>
        <rect x="17.5781" y="12.7065" width="2" height="6" rx="1" transform="rotate(-135 17.5781 12.7065)" fill="#ACC69B"/>
        <path d="M16.8711 11.9995C16.4806 11.609 16.4806 10.9758 16.8711 10.5853L19.6995 7.75687C20.09 7.36635 20.7232 7.36635 21.1137 7.75687L16.8711 11.9995Z" fill="#042804"/>
    </g>
    <defs>
        <filter id="filter0_d_13_3025" x="0.333335" y="2" width="33.3333" height="33.3333" filterUnits="userSpaceOnUse" color-interpolation-filters="sRGB">
            <feFlood flood-opacity="0" result="BackgroundImageFix"/>
            <feColorMatrix in="SourceAlpha" type="matrix" values="0 0 0 0 0 0 0 0 0 0 0 0 0 0 0 0 0 0 127 0" result="hardAlpha"/>
            <feOffset dy="6.66666"/>
            <feGaussianBlur stdDeviation="3.33333"/>
            <feComposite in2="hardAlpha" operator="out"/>
            <feColorMatrix type="matrix" values="0 0 0 0 0 0 0 0 0 0 0 0 0 0 0 0 0 0 0.25 0"/>
            <feBlend mode="normal" in2="BackgroundImageFix" result="effect1_dropShadow_13_3025"/>
            <feBlend mode="normal" in="SourceGraphic" in2="effect1_dropShadow_13_3025" result="shape"/>
        </filter>
    </defs>
</svg>
